<svg xmlns="http://www.w3.org/2000/svg" viewBox="0 0 500 400">
  <!-- 背景裝飾圓點 -->
  <circle cx="50" cy="50" r="5" fill="#667eea" opacity="0.3"/>
  <circle cx="450" cy="80" r="8" fill="#764ba2" opacity="0.3"/>
  <circle cx="420" cy="350" r="6" fill="#667eea" opacity="0.3"/>
  
  <!-- 書本 -->
  <rect x="120" y="180" width="260" height="180" rx="10" fill="#667eea" opacity="0.1"/>
  <rect x="130" y="190" width="120" height="160" rx="5" fill="#fff" stroke="#667eea" stroke-width="3"/>
  <rect x="260" y="190" width="110" height="160" rx="5" fill="#fff" stroke="#667eea" stroke-width="3"/>
  
  <!-- 書本內容線條 -->
  <line x1="145" y1="210" x2="230" y2="210" stroke="#667eea" stroke-width="2" opacity="0.5"/>
  <line x1="145" y1="230" x2="220" y2="230" stroke="#667eea" stroke-width="2" opacity="0.5"/>
  <line x1="145" y1="250" x2="230" y2="250" stroke="#667eea" stroke-width="2" opacity="0.5"/>
  <line x1="145" y1="270" x2="210" y2="270" stroke="#667eea" stroke-width="2" opacity="0.5"/>
  
  <line x1="275" y1="210" x2="350" y2="210" stroke="#764ba2" stroke-width="2" opacity="0.5"/>
  <line x1="275" y1="230" x2="340" y2="230" stroke="#764ba2" stroke-width="2" opacity="0.5"/>
  <line x1="275" y1="250" x2="350" y2="250" stroke="#764ba2" stroke-width="2" opacity="0.5"/>
  
  <!-- 人物頭部 -->
  <circle cx="250" cy="100" r="35" fill="#fff" stroke="#667eea" stroke-width="3"/>
  
  <!-- 眼睛 -->
  <circle cx="240" cy="95" r="4" fill="#667eea"/>
  <circle cx="260" cy="95" r="4" fill="#667eea"/>
  
  <!-- 微笑 -->
  <path d="M 235 110 Q 250 118 265 110" stroke="#667eea" stroke-width="2" fill="none"/>
  
  <!-- 身體 -->
  <rect x="220" y="135" width="60" height="50" rx="10" fill="#fff" stroke="#667eea" stroke-width="3"/>
  
  <!-- 手臂 -->
  <rect x="180" y="145" width="40" height="12" rx="6" fill="#fff" stroke="#667eea" stroke-width="3"/>
  <rect x="280" y="145" width="40" height="12" rx="6" fill="#fff" stroke="#667eea" stroke-width="3"/>
  
  <!-- 筆記本 (左手拿著) -->
  <rect x="150" y="140" width="35" height="45" rx="3" fill="#764ba2" opacity="0.8"/>
  <line x1="157" y1="150" x2="178" y2="150" stroke="#fff" stroke-width="1.5"/>
  <line x1="157" y1="160" x2="175" y2="160" stroke="#fff" stroke-width="1.5"/>
  <line x1="157" y1="170" x2="178" y2="170" stroke="#fff" stroke-width="1.5"/>
  
  <!-- 筆 (右手拿著) -->
  <rect x="315" y="145" width="4" height="40" rx="2" fill="#667eea"/>
  <polygon points="317,145 321,135 313,135" fill="#FFA500"/>
  
  <!-- 裝飾星星 -->
  <path d="M 80 120 L 85 130 L 95 132 L 87 140 L 89 150 L 80 145 L 71 150 L 73 140 L 65 132 L 75 130 Z" fill="#FFA500" opacity="0.6"/>
  <path d="M 400 200 L 405 210 L 415 212 L 407 220 L 409 230 L 400 225 L 391 230 L 393 220 L 385 212 L 395 210 Z" fill="#667eea" opacity="0.6"/>
  <path d="M 100 320 L 105 330 L 115 332 L 107 340 L 109 350 L 100 345 L 91 350 L 93 340 L 85 332 L 95 330 Z" fill="#764ba2" opacity="0.6"/>
</svg>


