<svg xmlns="http://www.w3.org/2000/svg" viewBox="0 0 200 200">
  <!-- 剪貼板 -->
  <rect x="30" y="20" width="140" height="170" rx="8" fill="#fff" stroke="#667eea" stroke-width="3"/>
  
  <!-- 剪貼板夾 -->
  <rect x="75" y="10" width="50" height="25" rx="5" fill="#667eea"/>
  <rect x="85" y="15" width="30" height="15" rx="3" fill="#fff"/>
  
  <!-- 進度條背景 -->
  <rect x="45" y="50" width="110" height="12" rx="6" fill="#E0E0E0"/>
  <rect x="45" y="50" width="88" height="12" rx="6" fill="#667eea"/>
  
  <!-- 百分比文字 -->
  <text x="100" y="82" text-anchor="middle" font-size="16" font-weight="bold" fill="#667eea">80%</text>
  
  <!-- 檢查清單項目 -->
  <!-- 項目1 - 完成 -->
  <circle cx="50" cy="105" r="8" fill="#28a745" stroke="#28a745" stroke-width="2"/>
  <path d="M 46 105 L 49 108 L 54 103" stroke="#fff" stroke-width="2" fill="none"/>
  <line x1="65" y1="105" x2="150" y2="105" stroke="#28a745" stroke-width="2" opacity="0.5"/>
  
  <!-- 項目2 - 完成 -->
  <circle cx="50" cy="125" r="8" fill="#28a745" stroke="#28a745" stroke-width="2"/>
  <path d="M 46 125 L 49 128 L 54 123" stroke="#fff" stroke-width="2" fill="none"/>
  <line x1="65" y1="125" x2="145" y2="125" stroke="#28a745" stroke-width="2" opacity="0.5"/>
  
  <!-- 項目3 - 進行中 -->
  <circle cx="50" cy="145" r="8" fill="#ffc107" stroke="#ffc107" stroke-width="2"/>
  <circle cx="50" cy="145" r="3" fill="#fff"/>
  <line x1="65" y1="145" x2="155" y2="145" stroke="#ffc107" stroke-width="2" opacity="0.5"/>
  
  <!-- 項目4 - 未開始 -->
  <circle cx="50" cy="165" r="8" fill="#fff" stroke="#E0E0E0" stroke-width="2"/>
  <line x1="65" y1="165" x2="140" y2="165" stroke="#E0E0E0" stroke-width="2" opacity="0.5"/>
  
  <!-- 裝飾星星 -->
  <path d="M 160 40 L 163 46 L 169 47 L 164 52 L 165 58 L 160 55 L 155 58 L 156 52 L 151 47 L 157 46 Z" fill="#FFA500"/>
</svg>


