<svg xmlns="http://www.w3.org/2000/svg" viewBox="0 0 200 200">
  <!-- 筆記本 -->
  <rect x="40" y="40" width="120" height="140" rx="8" fill="#fff" stroke="#667eea" stroke-width="3"/>
  
  <!-- 螺旋裝訂 -->
  <circle cx="50" cy="50" r="4" fill="none" stroke="#667eea" stroke-width="2"/>
  <circle cx="70" cy="50" r="4" fill="none" stroke="#667eea" stroke-width="2"/>
  <circle cx="90" cy="50" r="4" fill="none" stroke="#667eea" stroke-width="2"/>
  <circle cx="110" cy="50" r="4" fill="none" stroke="#667eea" stroke-width="2"/>
  <circle cx="130" cy="50" r="4" fill="none" stroke="#667eea" stroke-width="2"/>
  <circle cx="150" cy="50" r="4" fill="none" stroke="#667eea" stroke-width="2"/>
  
  <!-- 文字線條 -->
  <line x1="55" y1="80" x2="145" y2="80" stroke="#667eea" stroke-width="2" opacity="0.6"/>
  <line x1="55" y1="95" x2="135" y2="95" stroke="#667eea" stroke-width="2" opacity="0.6"/>
  <line x1="55" y1="110" x2="145" y2="110" stroke="#667eea" stroke-width="2" opacity="0.6"/>
  <line x1="55" y1="125" x2="125" y2="125" stroke="#667eea" stroke-width="2" opacity="0.6"/>
  <line x1="55" y1="140" x2="140" y2="140" stroke="#764ba2" stroke-width="2" opacity="0.6"/>
  <line x1="55" y1="155" x2="130" y2="155" stroke="#764ba2" stroke-width="2" opacity="0.6"/>
  
  <!-- 筆 -->
  <rect x="130" y="120" width="6" height="70" rx="3" fill="#667eea" transform="rotate(25 133 155)"/>
  <polygon points="133,115 137,108 129,108" fill="#FFA500" transform="rotate(25 133 108)"/>
  
  <!-- 裝飾元素 -->
  <circle cx="170" cy="70" r="3" fill="#764ba2" opacity="0.5"/>
  <circle cx="30" cy="100" r="4" fill="#667eea" opacity="0.5"/>
  <circle cx="175" cy="150" r="3.5" fill="#FFA500" opacity="0.5"/>
</svg>


